<svg version="1.1" id="Layer_1" xmlns="http://www.w3.org/2000/svg" xmlns:xlink="http://www.w3.org/1999/xlink" x="0px" y="0px"
	 width="100%" viewBox="0 0 784 784" enable-background="new 0 0 784 784" xml:space="preserve">
<path fill="#000000" opacity="1.000000" stroke="none" 
	d="
M183.988663,431.747894 
	C180.839233,417.483765 178.877853,403.451874 178.961060,389.278534 
	C179.366379,320.222412 206.096573,263.659393 260.094543,220.355804 
	C289.743164,196.579147 323.780212,182.700119 361.168671,176.663666 
	C408.706665,168.988525 453.206909,178.223480 495.144989,201.006821 
	C538.421753,224.517395 570.014099,258.861816 588.790771,304.503967 
	C597.951660,326.772156 603.530945,349.893829 604.557495,374.205353 
	C606.142029,411.732086 600.347168,447.762848 582.896057,481.096893 
	C551.439575,541.183350 502.248657,578.846985 435.834808,593.190002 
	C377.384399,605.813232 323.242889,593.825439 273.716644,561.451050 
	C231.047073,533.558655 202.258591,494.684570 187.520996,445.687805 
	C186.182022,441.236298 185.231277,436.667969 183.988663,431.747894 
M491.518402,323.708038 
	C514.850891,323.698792 538.183350,323.695770 561.515808,323.676331 
	C568.336243,323.670624 568.673401,323.228485 566.223145,317.004883 
	C550.632812,277.405426 524.280273,247.008179 487.620972,225.546921 
	C463.742004,211.567596 438.229401,202.439713 410.456085,200.140930 
	C405.899292,199.763763 404.118164,201.131104 404.179565,205.837479 
	C404.357788,219.501312 404.344635,233.171494 404.118683,246.834412 
	C404.050598,250.951462 405.165009,253.325027 409.038391,255.438873 
	C423.895752,263.547089 431.001251,278.833405 427.809998,294.473755 
	C423.711823,314.558777 405.570770,326.786713 385.338287,323.101715 
	C366.731049,319.712769 353.821411,302.645630 355.472412,284.134918 
	C356.636719,271.080872 362.949677,261.559021 374.254547,255.365891 
	C377.796631,253.425461 379.092987,251.103210 379.119049,247.083145 
	C379.206482,233.590302 378.610260,220.091187 379.471283,206.599945 
	C379.821869,201.107117 378.730835,199.998276 373.283752,200.344284 
	C361.599548,201.086533 350.245544,203.661179 339.099060,207.157745 
	C283.655365,224.549927 243.802658,259.644867 219.712006,312.537201 
	C218.244843,315.758423 216.389999,319.017181 216.615631,322.712341 
	C218.635574,324.197723 220.705109,323.661896 222.640594,323.665802 
	C247.140182,323.715576 271.639893,323.717468 296.139587,323.719360 
	C313.634491,323.720734 326.564972,331.296692 334.238098,347.118195 
	C337.601990,354.054321 342.465363,357.187408 350.389038,357.091248 
	C377.384918,356.763641 404.389435,356.712860 431.384857,357.038300 
	C439.935425,357.141388 445.685883,354.140320 449.468475,346.537689 
	C452.537964,340.368225 456.690857,335.020386 462.548828,331.057465 
	C471.055389,325.302795 480.418427,323.175934 491.518402,323.708038 
M514.499939,434.677643 
	C532.490295,434.669922 550.480652,434.681732 568.470886,434.627472 
	C570.522522,434.621277 573.265930,435.393280 574.053162,432.602875 
	C576.338379,424.502136 577.952209,416.270874 577.930359,407.292419 
	C572.493896,407.292419 567.525818,407.267883 562.557983,407.298096 
	C554.682495,407.345978 547.298401,407.085754 539.915466,412.278778 
	C530.844238,418.659332 519.361633,414.934052 513.325317,405.808228 
	C507.167847,396.499176 508.904449,383.347412 517.225342,376.272278 
	C525.180664,369.507965 536.870544,370.158295 544.829468,377.939148 
	C546.582825,379.653320 548.296631,380.834564 550.886353,380.800934 
	C558.713928,380.699341 566.545044,380.682190 574.372070,380.805908 
	C577.582764,380.856628 578.763000,379.622223 578.796631,376.396271 
	C578.880554,368.372162 577.885010,360.470398 576.829468,352.548096 
	C576.444641,349.659302 574.882874,349.037933 572.432007,349.038757 
	C543.282104,349.048615 514.132141,349.001251 484.982330,349.064667 
	C479.192627,349.077271 474.859528,352.068359 471.721710,356.768280 
	C470.246918,358.977264 469.036835,361.367279 467.765167,363.706970 
	C460.628296,376.837799 449.287872,382.857910 434.655121,383.135284 
	C426.662231,383.286774 418.653717,383.433319 410.672668,383.096771 
	C405.544861,382.880463 404.120850,384.812988 404.166992,389.764862 
	C404.382660,412.916809 404.268982,436.071838 404.273163,459.225769 
	C404.279633,494.872833 404.344330,530.520081 404.217957,566.166748 
	C404.202454,570.545044 405.286255,572.052490 409.922974,571.396606 
	C419.149689,570.091492 428.349548,568.800476 437.422333,566.583618 
	C441.957581,565.475403 443.869812,563.526001 443.808929,558.416199 
	C443.509430,533.266968 443.576904,508.111603 443.711639,482.959473 
	C443.839996,458.995911 460.500366,439.408478 484.077820,435.429230 
	C493.820801,433.784882 503.692810,435.013519 514.499939,434.677643 
M349.109680,567.323364 
	C356.630829,568.710144 364.130859,570.227905 371.679535,571.443604 
	C378.146362,572.485168 378.909698,571.766663 378.919159,565.153015 
	C379.003296,506.515076 379.009613,447.877045 379.192749,389.239471 
	C379.207947,384.371674 377.501038,382.910278 372.779694,383.052002 
	C363.461151,383.331726 354.091217,383.590210 344.807037,382.938538 
	C330.106659,381.906708 320.404938,373.279633 314.046570,360.540192 
	C310.668427,353.771820 305.843811,349.310425 297.957581,348.933899 
	C269.173889,347.559601 240.377686,349.057922 211.590866,348.538696 
	C208.692383,348.486420 207.919174,350.352661 207.471939,352.584503 
	C205.898743,360.435455 205.240143,368.374939 205.055023,376.377197 
	C204.973572,379.897522 206.496078,381.092285 209.843735,381.009216 
	C217.336960,380.823212 224.834900,380.762268 232.330627,380.779846 
	C234.703644,380.785431 236.343750,379.809723 237.998428,378.210144 
	C246.854324,369.649414 258.735931,369.395782 266.999237,377.468658 
	C275.303802,385.581879 275.805817,399.240845 268.113739,407.792725 
	C260.014984,416.796661 248.830917,417.531586 239.202866,409.588165 
	C237.605728,408.270447 236.104477,407.217133 233.916000,407.227264 
	C225.753662,407.265076 217.590546,407.236145 209.428406,407.159241 
	C206.502670,407.131653 205.157089,407.995239 205.705627,411.309174 
	C206.683533,417.216949 207.844711,423.069061 209.131027,428.918701 
	C210.101349,433.331390 212.141434,434.770355 216.642426,434.741791 
	C242.295395,434.578918 267.950867,434.612122 293.604279,434.772034 
	C316.593536,434.915314 338.073944,455.306976 339.347504,478.190857 
	C340.384613,496.825989 338.956146,515.476196 339.353516,534.121399 
	C339.545105,543.111511 339.635529,552.105164 339.634186,561.097168 
	C339.633759,563.899902 340.599487,565.476624 343.487305,565.862671 
	C345.124603,566.081482 346.714020,566.658264 349.109680,567.323364 
M519.463623,522.967041 
	C538.595215,505.428894 553.203003,484.668060 564.204712,461.323090 
	C562.210938,459.722412 560.484070,460.252716 558.891357,460.248901 
	C537.058960,460.196350 515.226440,460.182709 493.393982,460.182037 
	C477.880310,460.181549 468.373108,469.746063 468.336395,485.460358 
	C468.286163,506.959442 468.287720,528.458679 468.319733,549.957764 
	C468.322083,551.535889 467.739532,553.281616 469.451080,555.177856 
	C488.318817,548.452148 503.954559,536.466675 519.463623,522.967041 
M269.095367,526.386414 
	C282.940033,537.733704 297.373962,548.127625 314.249298,555.184509 
	C314.550934,553.908203 314.762878,553.429321 314.763123,552.950317 
	C314.774506,529.128662 315.059814,505.301880 314.641205,481.487488 
	C314.428284,469.374725 304.136169,460.148010 291.993713,460.120178 
	C269.836212,460.069397 247.678360,460.149658 225.520767,460.214203 
	C223.924759,460.218842 222.164932,459.747681 220.113571,461.843079 
	C232.251129,486.061554 247.828873,507.892853 269.095367,526.386414 
M381.011871,279.729889 
	C379.876129,281.227112 379.330414,282.920227 379.116760,284.787292 
	C378.434875,290.744507 381.381653,296.161530 386.730621,298.630402 
	C391.512878,300.837738 397.090057,299.516449 401.223572,295.196930 
	C405.125854,291.119080 405.913361,285.675934 403.277252,281.002472 
	C400.368744,275.846100 394.709320,273.224121 388.891022,274.433655 
	C385.857666,275.064209 383.390228,276.693848 381.011871,279.729889 
M253.517441,389.827728 
	C250.896088,390.271759 249.081482,391.535156 249.589203,394.473145 
	C249.883636,396.176910 251.055954,397.530060 252.812271,397.946411 
	C254.589401,398.367676 255.701920,397.126099 256.269745,395.717468 
	C257.251251,393.282654 256.904602,391.130310 253.517441,389.827728 
M529.531494,397.560425 
	C533.762756,395.913696 534.961243,393.144928 532.273621,391.090973 
	C530.515137,389.747162 528.354248,389.484863 527.014771,391.393585 
	C525.290283,393.850983 526.123962,396.052124 529.531494,397.560425 
z"/>
<path fill="#000000" opacity="1.000000" stroke="none" 
	d="
M487.417175,291.418701 
	C479.636963,297.675354 471.117096,298.863403 463.963715,294.909698 
	C456.879852,290.994385 452.017822,282.141724 453.120758,274.468628 
	C454.368500,265.788483 458.537872,259.121002 467.339233,256.349426 
	C475.701416,253.716141 484.847870,257.113770 489.675690,264.403870 
	C495.186279,272.724915 494.423004,282.967896 487.417175,291.418701 
M476.465424,275.152344 
	C475.093903,273.122894 473.307587,272.909973 471.355988,274.154572 
	C470.078949,274.968994 469.907990,276.291992 470.364441,277.660950 
	C470.836487,279.076691 471.923615,279.829559 473.367584,279.761566 
	C475.792297,279.647369 476.887726,278.259674 476.465424,275.152344 
z"/>
<path fill="#000000" opacity="1.000000" stroke="none" 
	d="
M325.499207,289.384308 
	C317.154480,297.773743 308.789459,299.548462 300.549469,294.897766 
	C291.998718,290.071716 287.772125,280.526306 289.993774,271.058594 
	C292.651459,259.732849 303.801056,253.322388 315.006287,256.677612 
	C326.803497,260.210114 333.114929,272.294128 328.878937,283.462402 
	C328.123260,285.454803 326.805389,287.233948 325.499207,289.384308 
M310.908783,273.521027 
	C308.724701,272.952637 306.917816,273.270630 306.373108,275.805389 
	C306.048798,277.314606 306.403442,278.734619 307.719238,279.768860 
	C308.996704,280.772919 310.267517,280.457062 311.279877,279.502289 
	C313.103363,277.782532 313.285309,275.849426 310.908783,273.521027 
z"/>
<path fill="#000000" opacity="1.000000" stroke="none" 
	d="
M495.490417,499.655609 
	C489.152466,492.740173 488.897736,484.080231 494.604645,479.173401 
	C500.871246,473.785278 509.547333,474.902649 514.673218,481.757812 
	C518.431946,486.784668 518.232971,493.171051 514.174805,497.751343 
	C509.376312,503.167267 502.810822,503.932922 495.490417,499.655609 
z"/>
<path fill="#000000" opacity="1.000000" stroke="none" 
	d="
M289.794647,497.665894 
	C283.615967,503.721893 277.031006,504.382263 271.271301,499.799286 
	C265.765442,495.418182 264.519135,487.985809 268.272400,481.914978 
	C271.759705,476.274323 279.254791,474.120575 285.372803,477.001221 
	C292.779663,480.488647 294.825806,489.454865 289.794647,497.665894 
z"/>
</svg>