<svg version="1.1" id="Layer_1" xmlns="http://www.w3.org/2000/svg" xmlns:xlink="http://www.w3.org/1999/xlink" x="0px" y="0px"
	 width="100%" viewBox="0 0 512 512" enable-background="new 0 0 512 512" xml:space="preserve">
<path fill="#fc8328" opacity="1.000000" stroke="none" 
	d="
M468.271881,286.762329 
	C466.030090,300.808136 462.890045,314.146942 458.533752,327.252747 
	C450.278534,352.088257 436.872681,373.906830 420.200165,393.802612 
	C386.750610,433.718842 343.525269,456.711060 292.772644,466.017273 
	C278.590546,468.617737 264.133850,469.984772 249.637573,469.260254 
	C222.000397,467.879059 195.618591,461.251801 170.323761,450.065918 
	C143.331345,438.129303 119.663795,421.576996 99.762321,399.736481 
	C72.840897,370.192047 54.848232,336.156403 47.607452,296.614197 
	C44.905685,281.859711 43.174110,267.012695 43.815342,252.067444 
	C45.988811,201.410126 62.501945,156.323837 96.557922,118.115227 
	C125.958977,85.129150 161.998932,63.052593 204.708954,52.042896 
	C218.812897,48.407207 233.165482,46.245838 247.858002,45.473808 
	C301.874329,42.635471 349.317719,59.953194 391.366730,92.486832 
	C432.382233,124.220833 456.128052,166.917435 466.531799,217.446365 
	C469.196503,230.388138 469.814911,243.452454 470.065643,256.513763 
	C470.256012,266.431610 468.947540,276.378235 468.271881,286.762329 
M269.338135,115.382515 
	C268.303650,121.185837 270.513458,124.639473 275.927704,127.495110 
	C290.158569,135.000885 295.591553,151.710739 292.734039,166.391006 
	C289.740814,181.768555 274.286041,195.119019 256.053650,194.623352 
	C230.873703,193.938828 212.562866,167.738724 223.161224,143.606842 
	C226.480865,136.048203 231.828964,130.359009 239.053314,126.304962 
	C241.479172,124.943665 243.769852,123.876350 244.101685,119.852478 
	C245.282684,105.532043 244.105408,91.223434 244.721893,76.932755 
	C244.913681,72.487236 243.323120,71.029953 238.965027,71.313583 
	C217.941223,72.681870 198.069031,78.721497 179.203644,87.486092 
	C135.329346,107.869446 103.610466,140.504135 84.116821,184.861404 
	C82.886749,187.660400 81.427383,190.517761 81.635315,193.674530 
	C83.627907,195.199844 85.704269,194.615829 87.628159,194.619537 
	C111.623108,194.665848 135.619873,194.824036 159.612686,194.591766 
	C178.525223,194.408661 192.128021,202.428680 200.271942,219.526703 
	C202.985535,225.223892 207.144760,227.864029 213.680756,227.813538 
	C241.173447,227.601105 268.674713,227.384537 296.159485,227.892441 
	C305.308197,228.061493 310.541046,224.515945 314.745270,216.797928 
	C322.808960,201.994812 335.561157,194.546539 352.637665,194.620972 
	C377.632019,194.729919 402.627228,194.662613 427.621979,194.617493 
	C429.367615,194.614349 431.264496,195.216675 432.955688,193.897476 
	C432.898010,193.399094 432.931274,192.893539 432.775757,192.454941 
	C421.605591,160.957642 403.051300,134.525970 377.111206,113.595871 
	C347.343170,89.577171 313.603485,74.701981 275.146393,71.041138 
	C269.773315,70.529663 269.248688,72.146416 269.293732,76.420532 
	C269.427155,89.083160 269.339630,101.748123 269.338135,115.382515 
M182.607437,237.750671 
	C181.173019,235.320435 179.464767,233.008362 178.355408,230.437851 
	C174.997894,222.657898 168.383087,219.591034 160.784454,219.500534 
	C133.125031,219.171066 105.459259,219.403107 77.796318,219.302597 
	C74.405602,219.290283 72.958862,220.867752 72.404861,223.860107 
	C70.951630,231.709579 70.079979,239.597092 70.232933,247.609238 
	C70.290352,250.617203 71.308807,251.785919 74.324387,251.734650 
	C81.988129,251.604355 89.655983,251.591171 97.320213,251.687805 
	C99.749695,251.718430 101.315231,250.595245 102.930771,249.011383 
	C111.998398,240.121490 123.505081,240.270264 132.427719,249.303345 
	C140.386429,257.360596 140.593445,270.807281 133.002914,279.148163 
	C125.988655,286.855835 114.211792,289.743408 104.314011,280.406006 
	C102.906761,279.078400 101.345016,278.376740 99.386765,278.383087 
	C90.888023,278.410736 82.388962,278.412842 73.890350,278.365143 
	C70.988426,278.348816 70.016258,279.586334 70.650368,282.424469 
	C71.949432,288.238831 73.254997,294.057739 74.301369,299.920532 
	C75.078415,304.274261 77.203056,305.794647 81.763252,305.755676 
	C107.091621,305.539246 132.422974,305.695587 157.752960,305.614197 
	C161.288300,305.602844 164.732925,305.978668 168.115067,306.817749 
	C188.564804,311.891266 204.834122,331.926636 204.445068,353.005981 
	C203.980820,378.160919 204.338440,403.331116 204.351562,428.494720 
	C204.355270,435.605103 204.526932,436.014282 211.480057,437.491119 
	C220.219742,439.347534 229.019226,440.926880 237.805984,442.555328 
	C241.859100,443.306519 243.714035,442.114166 243.795853,437.381805 
	C244.169922,415.748505 243.842026,394.117737 244.382156,372.472931 
	C245.325577,334.667664 244.625320,296.821991 244.705093,258.993439 
	C244.712311,255.573883 243.548523,254.215698 240.064011,254.272675 
	C231.067581,254.419815 222.063568,254.482513 213.069138,254.283508 
	C200.448639,254.004257 190.368546,248.707352 182.607437,237.750671 
M440.654114,278.365082 
	C432.321259,278.370178 423.988007,278.419983 415.655731,278.352814 
	C413.198608,278.333008 411.300171,279.005310 409.376740,280.703400 
	C404.565430,284.951141 398.782013,287.080811 392.351898,286.155548 
	C383.277161,284.849731 376.198090,277.124298 374.757141,267.517303 
	C373.406219,258.510651 378.118622,248.879837 385.921967,244.699570 
	C393.554504,240.610794 403.152039,242.266327 410.209503,248.967255 
	C411.822113,250.498459 413.380554,251.713242 415.829376,251.678101 
	C423.660828,251.565750 431.496490,251.553223 439.327393,251.686401 
	C442.608368,251.742203 443.640015,250.363525 443.698761,247.207870 
	C443.847809,239.201859 442.889587,231.322495 441.701813,223.438431 
	C441.407379,221.483963 440.779999,220.401199 438.686249,220.266327 
	C435.375671,220.053085 432.076050,219.427811 428.770416,219.417404 
	C403.771210,219.338699 378.771118,219.271637 353.772552,219.416321 
	C345.378967,219.464890 338.695984,222.757294 334.960419,230.903381 
	C327.275269,247.662140 313.849182,254.913284 295.714478,254.365417 
	C288.887756,254.159149 282.039429,254.570282 275.219421,254.274170 
	C270.549713,254.071442 269.239380,255.853714 269.266327,260.387146 
	C269.434692,288.718842 269.348755,317.052032 269.348846,345.384735 
	C269.348907,376.050720 269.372559,406.716736 269.319763,437.382629 
	C269.314301,440.553070 269.464233,443.243042 273.727875,442.598816 
	C283.701233,441.091797 293.703430,439.766449 303.503418,437.257446 
	C307.279999,436.290588 308.790985,434.402924 308.755951,430.242401 
	C308.552399,406.078003 308.658051,381.911011 308.671509,357.744873 
	C308.673737,353.759979 308.896149,349.827301 309.510162,345.841461 
	C312.993927,323.226562 333.081055,305.685608 355.954895,305.658478 
	C381.787628,305.627838 407.620636,305.595245 433.452881,305.712311 
	C437.252563,305.729523 439.293030,304.775879 439.772339,300.636047 
	C440.303345,296.049347 441.956665,291.577179 442.316650,286.991913 
	C442.533356,284.231659 444.639862,280.937927 440.654114,278.365082 
M406.819427,369.363037 
	C415.296692,357.562927 423.152527,345.405914 429.281647,331.864380 
	C427.947662,331.601959 427.466339,331.424988 426.984833,331.424377 
	C402.183105,331.392517 377.381409,331.380280 352.579712,331.345947 
	C351.046265,331.343811 349.650391,331.697632 348.252899,332.316711 
	C338.546875,336.616638 333.655396,344.492706 333.476074,354.661255 
	C333.079956,377.125824 333.342773,399.602173 333.376862,422.073700 
	C333.378754,423.321564 332.886108,424.760498 334.550995,426.108002 
	C341.151367,423.571533 347.718781,420.440338 353.937073,416.656830 
	C374.265137,404.288269 391.865356,388.812836 406.819427,369.363037 
M176.769287,342.807343 
	C171.699799,335.003021 165.029373,330.944824 155.203934,331.167938 
	C133.901932,331.651764 112.581665,331.318512 91.268967,331.366302 
	C89.509445,331.370239 87.612099,330.839264 86.014305,332.088928 
	C91.509064,359.856079 156.964523,425.241760 179.364975,425.033295 
	C180.311234,411.665466 179.952377,398.209229 180.124222,384.829620 
	C180.253540,374.760406 180.029556,364.578369 179.710907,354.452301 
	C179.588516,350.562469 178.948990,346.880981 176.769287,342.807343 
M250.445755,146.814072 
	C243.976440,150.692734 242.002396,158.388397 245.971069,164.258255 
	C250.752640,171.330429 257.843628,172.619919 264.342072,167.598999 
	C269.924255,163.286041 271.179626,157.773605 267.928650,151.850220 
	C264.673981,145.919998 258.257446,143.862122 250.445755,146.814072 
M391.432678,263.714325 
	C391.415833,267.181152 392.634003,269.406708 396.499542,267.919739 
	C398.686188,267.078613 399.462646,264.772278 398.181244,262.974335 
	C396.299652,260.334259 393.793854,260.381287 391.432678,263.714325 
M115.455826,267.027832 
	C117.204323,268.609833 119.024345,269.659882 120.737709,267.080231 
	C121.791374,265.493805 122.187431,263.701538 120.628860,262.168182 
	C119.566093,261.122559 118.319046,260.352631 116.687958,261.225861 
	C114.389244,262.456543 113.817551,264.183868 115.455826,267.027832 
z"/>
<path fill="#000000" opacity="1.000000" stroke="none" 
	d="
M182.988770,166.427490 
	C171.020187,172.480011 157.930008,163.212524 155.356369,153.534744 
	C152.104279,141.305634 157.908707,130.317871 169.868484,127.200302 
	C178.287170,125.005806 188.596329,129.661789 192.706650,137.514847 
	C197.582764,146.831009 195.428223,157.128098 187.125336,163.886185 
	C185.978531,164.819626 184.619949,165.492905 182.988770,166.427490 
M177.523819,146.727219 
	C176.702148,144.415100 175.043900,143.756866 172.902100,144.692719 
	C171.288681,145.397675 171.232712,146.985107 171.484131,148.494415 
	C171.717850,149.897446 172.605667,151.100143 173.977432,151.137863 
	C176.296738,151.201599 177.440582,149.696274 177.523819,146.727219 
z"/>
<path fill="#000000" opacity="1.000000" stroke="none" 
	d="
M321.999268,159.781982 
	C311.959900,144.410110 322.566284,129.910263 332.871521,127.131409 
	C344.134674,124.094238 354.838470,130.878784 357.924347,143.142776 
	C360.614838,153.835297 353.995972,164.598129 343.395844,167.386581 
	C334.562103,169.710388 327.776672,166.860092 321.999268,159.781982 
M336.002045,145.559113 
	C334.794067,147.452942 335.146790,149.122314 336.993622,150.265656 
	C338.225006,151.027954 339.587646,150.726654 340.674622,149.718201 
	C341.804871,148.669601 341.967438,147.264374 341.263885,146.062912 
	C340.131226,144.128632 338.356232,144.114471 336.002045,145.559113 
z"/>
<path fill="#000000" opacity="1.000000" stroke="none" 
	d="
M382.255890,362.540710 
	C379.485046,374.508301 364.685455,376.116913 359.418121,369.619110 
	C355.843872,365.209839 354.208862,358.037201 356.743530,353.510223 
	C359.137787,349.234070 365.753326,345.976715 370.289093,346.840698 
	C376.562256,348.035645 381.707245,353.278320 382.301422,359.138580 
	C382.401276,360.123413 382.302429,361.128418 382.255890,362.540710 
z"/>
<path fill="#000000" opacity="1.000000" stroke="none" 
	d="
M151.936005,371.109497 
	C144.359589,375.493591 136.979416,373.713776 132.829498,366.799835 
	C129.137482,360.648743 130.967773,353.205566 137.201889,349.018646 
	C143.414429,344.846252 151.310303,346.281891 155.597382,352.568298 
	C159.343338,358.061249 159.329514,365.241608 151.936005,371.109497 
z"/>
</svg>